<?xml version="1.0" encoding="UTF-8" standalone="no"?>
<!-- Created with Inkscape (http://www.inkscape.org/) -->

<svg
   width="100"
   height="100"
   viewBox="0 0 26.458333 26.458333"
   version="1.1"
   id="svg1"
   inkscape:version="1.3.2 (091e20e, 2023-11-25)"
   sodipodi:docname="icon.svg"
   xmlns:inkscape="http://www.inkscape.org/namespaces/inkscape"
   xmlns:sodipodi="http://sodipodi.sourceforge.net/DTD/sodipodi-0.dtd"
   xmlns="http://www.w3.org/2000/svg"
   xmlns:svg="http://www.w3.org/2000/svg">
  <sodipodi:namedview
     id="namedview1"
     pagecolor="#505050"
     bordercolor="#ffffff"
     borderopacity="1"
     inkscape:showpageshadow="0"
     inkscape:pageopacity="0"
     inkscape:pagecheckerboard="1"
     inkscape:deskcolor="#505050"
     inkscape:document-units="px"
     inkscape:zoom="5.734636"
     inkscape:cx="54.755001"
     inkscape:cy="36.706776"
     inkscape:window-width="1920"
     inkscape:window-height="1008"
     inkscape:window-x="0"
     inkscape:window-y="0"
     inkscape:window-maximized="1"
     inkscape:current-layer="layer1"
     showguides="true">
    <sodipodi:guide
       position="31.494797,14.058371"
       orientation="0,1"
       id="guide7"
       inkscape:locked="false"
       inkscape:label=""
       inkscape:color="rgb(0,134,229)" />
  </sodipodi:namedview>
  <defs
     id="defs1" />
  <g
     inkscape:label="Layer 1"
     inkscape:groupmode="layer"
     id="layer1">
    <g
       id="g8">
      <path
         id="path1"
         style="color:#000000;fill:#333333;stroke-linecap:round;-inkscape-stroke:none;fill-opacity:1"
         d="M 6.8048295,6.8059253 C 4.0973609,9.5134299 3.4598489,13.514706 4.8900937,16.832709 c 0.3868526,-3.66e-4 0.7736821,2.48e-4 1.160534,-1e-6 -1.514339,-3.009353 -1.0152482,-6.765706 1.4999986,-9.2809858 3.1400227,-3.140064 8.2149667,-3.1396524 11.3550397,3.657e-4 0.157901,0.1579012 0.306492,0.3214727 0.44799,0.4889155 l -2.115345,3.656e-4 0,1.0552961 3.215587,7.311e-4 0.602191,0 V 8.4952043 l -0.0011,-3.2093746 -1.054931,-3.648e-4 -3.66e-4,1.9443336 C 19.924285,7.1445815 19.84686,7.0602888 19.767662,6.9773013 A 0.52765,0.52765 0 0 0 19.652924,6.8048295 C 16.109565,3.2615382 10.34813,3.262578 6.8048295,6.8059253 Z m -1.4017033,10.5558937 -3.655e-4,0.601826 0.0011,3.209374 1.0552972,1e-6 4e-7,-1.886965 c 0.1114582,0.124543 0.2260854,0.247281 0.3456754,0.366869 3.5433395,3.543309 9.3047775,3.54443 12.8480945,0.0011 2.711653,-2.711665 3.323471,-6.711101 1.874906,-10.027879 -0.375046,4.087e-4 -0.750042,-5.586e-4 -1.12509,-3.656e-4 1.515651,3.0093466 1.018615,6.7652856 -1.497074,9.2809866 -3.140038,3.140054 -8.214982,3.140395 -11.3550397,3.66e-4 -0.157916,-0.157915 -0.305976,-0.321686 -0.4479898,-0.488916 l 2.117902,-7.31e-4 -2e-7,-1.055297 -3.2155859,-7.3e-4 z" />
      <path
         style="font-size:4.23333px;-inkscape-font-specification:'sans-serif, ';stroke-width:1.32292;stroke-linecap:round"
         d="m 5.3681029,3.5696627 0.3171738,0.317174 -0.2923261,1.502555 1.498171,-0.29671 0.3171737,0.317173 -1.9147355,0.371254 -1.039219,1.0392194 -0.2967109,-0.2967114 1.039219,-1.039219 z m 2.6499356,3.050422 Q 7.6964799,6.2985257 7.2667606,6.3482217 6.8385029,6.3993817 6.4248616,6.81302 6.0126819,7.2251997 5.9615248,7.6534573 5.9118298,8.0831766 6.233388,8.4047352 6.5549466,8.7262938 6.9817427,8.6736751 7.4100003,8.6225181 7.82218,8.2103384 8.2358213,7.796697 8.2869784,7.3684394 8.3395974,6.9416434 8.0180385,6.6200847 Z M 8.2577458,6.3803777 Q 8.7166977,6.8393293 8.6830802,7.4225198 8.6509242,8.0042485 8.1335072,8.5216656 7.6175518,9.0376211 7.0343614,9.0712386 6.4526326,9.1033946 5.9936807,8.6444425 5.5332672,8.184029 5.5639615,7.6008386 5.5961175,7.0191098 6.1135344,6.5016927 q 0.5174171,-0.517417 1.0991459,-0.549573 0.584652,-0.03216 1.0450655,0.428258 z M 9.6550639,7.8566242 9.9517747,8.1533351 8.6260762,9.4790337 Q 8.275285,9.8298249 8.247514,10.11192 q -0.026309,0.280633 0.2587085,0.56565 0.2835563,0.283557 0.5641893,0.257247 0.2820946,-0.02777 0.6328858,-0.378562 L 11.028997,9.2305565 11.325707,9.5272674 9.9634677,10.889507 Q 9.5366718,11.316303 9.1069525,11.322149 8.6786949,11.329459 8.2665152,10.917278 7.8528739,10.503636 7.8587204,10.073917 7.8660304,9.6456592 8.2928249,9.2188632 Z m 2.1003631,4.4185078 q 0.06285,0.127161 0.04677,0.321558 -0.01462,0.195859 -0.108161,0.470645 l -0.296711,0.89598 -0.317173,-0.317174 0.280633,-0.838976 q 0.111084,-0.327405 0.08039,-0.501339 -0.02923,-0.172473 -0.204629,-0.347868 l -0.321558,-0.321559 -0.9222893,0.922289 -0.2952492,-0.29525 2.1822145,-2.182213 0.666503,0.666503 q 0.374177,0.374178 0.401948,0.714738 0.02777,0.340559 -0.287941,0.656271 -0.20609,0.20609 -0.438489,0.245554 -0.230937,0.04093 -0.46626,-0.08916 z m 0.176857,-1.656027 -0.774664,0.774664 0.371254,0.371254 q 0.213399,0.213398 0.419488,0.223629 0.209013,0.01023 0.400487,-0.181242 0.191474,-0.191474 0.178319,-0.397563 -0.01023,-0.20609 -0.22363,-0.419488 z m 2.978802,2.49354 0.29525,0.29525 -1.933737,1.933736 1.062605,1.062605 -0.248477,0.248477 -1.357855,-1.357854 z m 2.246527,2.647013 q -0.321559,-0.321559 -0.751278,-0.271863 -0.428258,0.05116 -0.841899,0.464798 -0.41218,0.41218 -0.463337,0.840438 -0.0497,0.429719 0.271863,0.751278 0.321559,0.321558 0.748354,0.268939 0.428258,-0.05116 0.840438,-0.463336 0.413642,-0.413642 0.464798,-0.8419 0.05262,-0.426796 -0.268939,-0.748354 z m 0.239707,-0.239707 q 0.458952,0.458952 0.425334,1.042142 -0.03216,0.581729 -0.549573,1.099146 -0.515955,0.515955 -1.099146,0.549572 -0.581728,0.03216 -1.04068,-0.426795 -0.460413,-0.460414 -0.429719,-1.043604 0.03215,-0.581729 0.549572,-1.099146 0.517418,-0.517417 1.099147,-0.549573 0.584652,-0.03216 1.045065,0.428258 z m 1.047988,4.868689 0.586113,-0.586114 -0.482338,-0.482338 0.242631,-0.242631 0.774664,0.774665 -0.936904,0.936905 q -0.292327,-0.0497 -0.561267,-0.192936 -0.267478,-0.144701 -0.501338,-0.378562 -0.511571,-0.511571 -0.502802,-1.099146 0.01169,-0.587575 0.545189,-1.12107 0.534956,-0.534957 1.12107,-0.545189 0.589037,-0.01023 1.100608,0.50134 0.213398,0.213398 0.352253,0.45749 0.140316,0.245554 0.200242,0.510109 l -0.31425,0.31425 q -0.02485,-0.302557 -0.138854,-0.556881 -0.114007,-0.254323 -0.317174,-0.45749 -0.400487,-0.400487 -0.825821,-0.378562 -0.423873,0.02339 -0.866747,0.466259 -0.441412,0.441413 -0.464798,0.865286 -0.02192,0.425334 0.378562,0.825821 0.156395,0.156394 0.305481,0.252862 0.150547,0.09501 0.30548,0.135932 z m 3.388059,0.04677 q -0.321559,-0.32156 -0.751278,-0.271864 -0.428257,0.05116 -0.841899,0.464799 -0.412179,0.41218 -0.463337,0.840437 -0.04969,0.429719 0.271864,0.751278 0.321559,0.321559 0.748354,0.26894 0.428258,-0.05116 0.840437,-0.463337 0.413642,-0.413642 0.464799,-0.841899 0.05262,-0.426796 -0.26894,-0.748354 z m 0.239707,-0.239708 q 0.458952,0.458952 0.425335,1.042143 -0.03216,0.581728 -0.549574,1.099145 -0.515955,0.515956 -1.099145,0.549574 -0.581729,0.03216 -1.040681,-0.426797 -0.460413,-0.460413 -0.429719,-1.043604 0.03216,-0.581729 0.549573,-1.099146 0.517417,-0.517417 1.099146,-0.549572 0.584652,-0.03216 1.045065,0.428257 z"
         id="text8"
         aria-label="YOUR LOGO" />
    </g>
  </g>
</svg>
